<svg xmlns="http://www.w3.org/2000/svg" width="1200" height="760" viewBox="0 0 1200 760">
<rect width="100%" height="100%" fill="#f8fafc"/>
<text x="48.0" y="62.0" font-family="Inter, Arial, sans-serif" font-size="34" font-weight="800" fill="#111827" text-anchor="start">Top 10 aseguradoras por prima neta emitida, 2025</text>
<text x="48.0" y="96.0" font-family="Inter, Arial, sans-serif" font-size="17" font-weight="400" fill="#475569" text-anchor="start">Tamano relativo del mercado donde una herramienta antifraude escala operativamente.</text>
<line x1="310" y1="132" x2="1070" y2="132" stroke="#cbd5e1" stroke-width="1"/>
<text x="48.0" y="170.0" font-family="Inter, Arial, sans-serif" font-size="16" font-weight="600" fill="#334155" text-anchor="start">Equisuiza Seguros</text>
<rect x="310" y="150" width="760" height="35" rx="6" fill="#e2e8f0"/>
<rect x="310" y="150" width="760.0" height="35" rx="6" fill="#0f766e"/>
<text x="1084.0" y="173.5" font-family="Inter, Arial, sans-serif" font-size="17" font-weight="800" fill="#0f172a" text-anchor="start">$318.2M</text>
<text x="48.0" y="223.0" font-family="Inter, Arial, sans-serif" font-size="16" font-weight="600" fill="#334155" text-anchor="start">Seguros Pichincha</text>
<rect x="310" y="203" width="760" height="35" rx="6" fill="#e2e8f0"/>
<rect x="310" y="203" width="647.3" height="35" rx="6" fill="#2563eb"/>
<text x="971.3" y="226.5" font-family="Inter, Arial, sans-serif" font-size="17" font-weight="800" fill="#0f172a" text-anchor="start">$271.0M</text>
<text x="48.0" y="276.0" font-family="Inter, Arial, sans-serif" font-size="16" font-weight="600" fill="#334155" text-anchor="start">Chubb Seguros Ecuador</text>
<rect x="310" y="256" width="760" height="35" rx="6" fill="#e2e8f0"/>
<rect x="310" y="256" width="546.7" height="35" rx="6" fill="#dc2626"/>
<text x="870.7" y="279.5" font-family="Inter, Arial, sans-serif" font-size="17" font-weight="800" fill="#0f172a" text-anchor="start">$228.9M</text>
<text x="48.0" y="329.0" font-family="Inter, Arial, sans-serif" font-size="16" font-weight="600" fill="#334155" text-anchor="start">Latina Seguros</text>
<rect x="310" y="309" width="760" height="35" rx="6" fill="#e2e8f0"/>
<rect x="310" y="309" width="418.5" height="35" rx="6" fill="#ca8a04"/>
<text x="742.5" y="332.5" font-family="Inter, Arial, sans-serif" font-size="17" font-weight="800" fill="#0f172a" text-anchor="start">$175.2M</text>
<text x="48.0" y="382.0" font-family="Inter, Arial, sans-serif" font-size="16" font-weight="600" fill="#334155" text-anchor="start">Hispana de Seguros</text>
<rect x="310" y="362" width="760" height="35" rx="6" fill="#e2e8f0"/>
<rect x="310" y="362" width="398.9" height="35" rx="6" fill="#7c3aed"/>
<text x="722.9" y="385.5" font-family="Inter, Arial, sans-serif" font-size="17" font-weight="800" fill="#0f172a" text-anchor="start">$167.0M</text>
<text x="48.0" y="435.0" font-family="Inter, Arial, sans-serif" font-size="16" font-weight="600" fill="#334155" text-anchor="start">Aseguradora del Sur</text>
<rect x="310" y="415" width="760" height="35" rx="6" fill="#e2e8f0"/>
<rect x="310" y="415" width="354.7" height="35" rx="6" fill="#059669"/>
<text x="678.7" y="438.5" font-family="Inter, Arial, sans-serif" font-size="17" font-weight="800" fill="#0f172a" text-anchor="start">$148.5M</text>
<text x="48.0" y="488.0" font-family="Inter, Arial, sans-serif" font-size="16" font-weight="600" fill="#334155" text-anchor="start">AIG Metropolitana</text>
<rect x="310" y="468" width="760" height="35" rx="6" fill="#e2e8f0"/>
<rect x="310" y="468" width="336.8" height="35" rx="6" fill="#ea580c"/>
<text x="660.8" y="491.5" font-family="Inter, Arial, sans-serif" font-size="17" font-weight="800" fill="#0f172a" text-anchor="start">$141.0M</text>
<text x="48.0" y="541.0" font-family="Inter, Arial, sans-serif" font-size="16" font-weight="600" fill="#334155" text-anchor="start">Zurich Seguros Ecuador</text>
<rect x="310" y="521" width="760" height="35" rx="6" fill="#e2e8f0"/>
<rect x="310" y="521" width="296.9" height="35" rx="6" fill="#0891b2"/>
<text x="620.9" y="544.5" font-family="Inter, Arial, sans-serif" font-size="17" font-weight="800" fill="#0f172a" text-anchor="start">$124.3M</text>
<text x="48.0" y="594.0" font-family="Inter, Arial, sans-serif" font-size="16" font-weight="600" fill="#334155" text-anchor="start">Sweaden</text>
<rect x="310" y="574" width="760" height="35" rx="6" fill="#e2e8f0"/>
<rect x="310" y="574" width="266.5" height="35" rx="6" fill="#be185d"/>
<text x="590.5" y="597.5" font-family="Inter, Arial, sans-serif" font-size="17" font-weight="800" fill="#0f172a" text-anchor="start">$111.6M</text>
<text x="48.0" y="647.0" font-family="Inter, Arial, sans-serif" font-size="16" font-weight="600" fill="#334155" text-anchor="start">Mapfre Ecuador</text>
<rect x="310" y="627" width="760" height="35" rx="6" fill="#e2e8f0"/>
<rect x="310" y="627" width="190.6" height="35" rx="6" fill="#4b5563"/>
<text x="514.6" y="650.5" font-family="Inter, Arial, sans-serif" font-size="17" font-weight="800" fill="#0f172a" text-anchor="start">$79.8M</text>
<text x="48.0" y="718.0" font-family="Inter, Arial, sans-serif" font-size="13" font-weight="400" fill="#64748b" text-anchor="start">Fuente: Forbes Ecuador 2026, con datos SCVS: aseguradoras con mayor prima neta 2025</text>
</svg>